<?xml version="1.0" encoding="UTF-8"?>
<svg version="1.1" xmlns="http://www.w3.org/2000/svg" width="302" height="302">
<path d="M0 0 C0.7425 0.7425 1.485 1.485 2.25 2.25 C2.25 2.91 2.25 3.57 2.25 4.25 C2.91 4.25 3.57 4.25 4.25 4.25 C5.29980469 5.65185547 5.29980469 5.65185547 6.421875 7.6171875 C6.83646973 8.33374512 7.25106445 9.05030273 7.67822266 9.78857422 C8.11440918 10.55959473 8.5505957 11.33061523 9 12.125 C9.89790625 13.68780535 10.79634207 15.25030656 11.6953125 16.8125 C12.13133789 17.57433594 12.56736328 18.33617188 13.01660156 19.12109375 C15.02478623 22.58731907 17.152345 25.97913268 19.2890625 29.3671875 C20.25 31.25 20.25 31.25 20.25 34.25 C20.91 34.25 21.57 34.25 22.25 34.25 C22.5903125 34.96542969 22.930625 35.68085937 23.28125 36.41796875 C26.46605615 42.96545587 29.9756831 49.13981054 33.84765625 55.30078125 C36.97279376 60.3594377 39.84345157 65.56389548 42.75 70.75 C46.86857963 78.09399463 51.07743462 85.33266872 55.546875 92.46875 C58.29907077 96.96316143 60.76550873 101.60414493 63.25 106.25 C64.01715022 107.64786096 64.78790275 109.04375188 65.5625 110.4375 C65.96082031 111.15679687 66.35914063 111.87609375 66.76953125 112.6171875 C67.96083818 114.735765 69.16887704 116.8420083 70.38671875 118.9453125 C72.37314935 122.38754614 74.31066928 125.85344438 76.21044922 129.34423828 C77.10613436 130.98625758 78.02189125 132.61729928 78.94140625 134.24609375 C83.85644987 144.1181899 83.80841776 156.1224142 81.48046875 166.76953125 C79.78690716 171.70177637 77.53781286 176.19503081 74.25 180.25 C73.59 180.25 72.93 180.25 72.25 180.25 C71.98058594 180.84941406 71.71117187 181.44882813 71.43359375 182.06640625 C67.234311 189.81359786 57.90785992 193.53210194 49.8828125 195.96875 C45.44710485 196.9843329 41.10147557 197.33449599 36.55859375 197.5324707 C23.4311614 198.12252014 12.8464129 201.26422126 1.89453125 208.54296875 C-0.75 210.25 -0.75 210.25 -3.75 211.25 C-3.75 211.91 -3.75 212.57 -3.75 213.25 C-4.41 213.25 -5.07 213.25 -5.75 213.25 C-5.75 213.91 -5.75 214.57 -5.75 215.25 C-6.41 215.25 -7.07 215.25 -7.75 215.25 C-7.75 215.91 -7.75 216.57 -7.75 217.25 C-8.41 217.25 -9.07 217.25 -9.75 217.25 C-9.75 217.91 -9.75 218.57 -9.75 219.25 C-10.41 219.25 -11.07 219.25 -11.75 219.25 C-11.95625 220.054375 -12.1625 220.85875 -12.375 221.6875 C-14.18083854 226.36626349 -16.84581393 230.18561746 -19.75 234.25 C-20.23855469 234.98347656 -20.72710937 235.71695313 -21.23046875 236.47265625 C-22.75 238.25 -22.75 238.25 -26.125 239.0625 C-29.30050688 239.22675036 -31.70563829 239.08028047 -34.75 238.25 C-34.75 237.59 -34.75 236.93 -34.75 236.25 C-35.41 236.25 -36.07 236.25 -36.75 236.25 C-37.14832031 235.50234375 -37.54664063 234.7546875 -37.95703125 233.984375 C-38.48683594 232.99953125 -39.01664062 232.0146875 -39.5625 231 C-40.08457031 230.02546875 -40.60664063 229.0509375 -41.14453125 228.046875 C-42.65755519 225.27207169 -42.65755519 225.27207169 -44.44921875 223.015625 C-45.75 221.25 -45.75 221.25 -45.75 219.25 C-46.41 219.25 -47.07 219.25 -47.75 219.25 C-48.77383911 218.10079284 -49.74384347 216.90340952 -50.6875 215.6875 C-59.09413868 205.83324512 -72.9229032 199.32256209 -85.80786133 198.04614258 C-87.89270451 197.93990695 -89.97580985 197.87126987 -92.0625 197.8125 C-104.18344601 197.24845988 -116.71807079 194.43950175 -126.09765625 186.18359375 C-127.75 184.25 -127.75 184.25 -127.75 182.25 C-128.41 182.25 -129.07 182.25 -129.75 182.25 C-129.75 181.59 -129.75 180.93 -129.75 180.25 C-130.41 180.25 -131.07 180.25 -131.75 180.25 C-132.7202321 178.59023188 -133.67555673 176.921747 -134.625 175.25 C-135.42550781 173.8578125 -135.42550781 173.8578125 -136.2421875 172.4375 C-140.99516717 162.38975023 -141.79390495 149.13149087 -138.25 138.5625 C-134.23238408 129.18806284 -128.53212374 120.51780889 -123.26464844 111.81494141 C-121.79233657 109.32169374 -120.40288903 106.79981698 -119.03125 104.25 C-115.58982149 97.91423373 -111.99141473 91.6745851 -108.375 85.4375 C-107.70692675 84.28257821 -107.03904097 83.12754795 -106.37133789 81.97241211 C-105.0738842 79.72784437 -103.77612675 77.48345218 -102.47802734 75.23925781 C-97.1203139 65.97112509 -91.82812947 56.67531607 -86.75 47.25 C-86.09 47.25 -85.43 47.25 -84.75 47.25 C-84.67136719 46.57195312 -84.59273437 45.89390625 -84.51171875 45.1953125 C-83.53086449 41.40267602 -81.62884659 38.40359209 -79.5625 35.125 C-78.73782885 33.78623542 -77.9149203 32.44638353 -77.09375 31.10546875 C-76.6915625 30.44981934 -76.289375 29.79416992 -75.875 29.11865234 C-74.35839654 26.59953713 -72.95221181 24.02842547 -71.5625 21.4375 C-63.87626339 7.13255965 -63.87626339 7.13255965 -59.75 2.25 C-59.09 2.25 -58.43 2.25 -57.75 2.25 C-57.75 1.59 -57.75 0.93 -57.75 0.25 C-55.51953125 -1.40625 -55.51953125 -1.40625 -52.5625 -3.25 C-51.59957031 -3.8584375 -50.63664062 -4.466875 -49.64453125 -5.09375 C-34.117351 -13.97839835 -13.67493076 -10.91395899 0 0 Z M-42.75 12.25 C-42.75 12.91 -42.75 13.57 -42.75 14.25 C-43.41 14.25 -44.07 14.25 -44.75 14.25 C-44.75 14.91 -44.75 15.57 -44.75 16.25 C-45.41 16.25 -46.07 16.25 -46.75 16.25 C-49.0273501 19.06509993 -49.0273501 19.06509993 -48.75 22.25 C-49.41 22.25 -50.07 22.25 -50.75 22.25 C-50.75 23.24 -50.75 24.23 -50.75 25.25 C-51.41 25.25 -52.07 25.25 -52.75 25.25 C-53.0903125 25.95382813 -53.430625 26.65765625 -53.78125 27.3828125 C-56.99155859 33.92296244 -60.39423568 40.26884208 -64.12109375 46.52783203 C-65.80134801 49.39137559 -67.19273073 51.95484256 -67.75 55.25 C-68.41 55.25 -69.07 55.25 -69.75 55.25 C-70.11351562 55.91644531 -70.47703125 56.58289063 -70.8515625 57.26953125 C-71.9157545 59.22054991 -72.98093849 61.17102766 -74.046875 63.12109375 C-75.10638987 65.06758781 -76.159639 67.01752254 -77.203125 68.97265625 C-80.51455602 75.14974874 -84.10445568 81.10336408 -87.8046875 87.0546875 C-90.6295277 91.69468605 -93.19580529 96.45737641 -95.75 101.25 C-100.63069151 110.30073289 -105.70914364 119.23147988 -110.83935547 128.14208984 C-111.56493373 129.40254328 -112.28987579 130.66336317 -113.01416016 131.92456055 C-114.00415954 133.64841369 -114.99615808 135.37111828 -115.98828125 137.09375 C-120.47219475 145.12701411 -123.04180606 151.20853025 -120.6875 160.375 C-119.07900712 165.14090484 -116.62060321 168.99394939 -112.75 172.25 C-112.09 172.25 -111.43 172.25 -110.75 172.25 C-110.75 172.91 -110.75 173.57 -110.75 174.25 C-109.21412859 174.92991145 -107.67094499 175.5933154 -106.125 176.25 C-105.26648438 176.62125 -104.40796875 176.9925 -103.5234375 177.375 C-100.45637082 178.34263794 -97.94683084 178.31184921 -94.75 178.25 C-94.79742844 177.60838425 -94.84485687 176.96676849 -94.89372253 176.30570984 C-98.42781424 125.60847253 -98.42781424 125.60847253 -87.7421875 112.5546875 C-81.35670803 105.4277214 -73.35405467 98.55202734 -64.75 94.25 C-64.75 93.59 -64.75 92.93 -64.75 92.25 C-64.09 92.25 -63.43 92.25 -62.75 92.25 C-62.75 91.59 -62.75 90.93 -62.75 90.25 C-62.17781738 90.00451416 -61.60563477 89.75902832 -61.01611328 89.50610352 C-58.3662938 88.03731217 -56.60900717 86.31863952 -54.4921875 84.15234375 C-53.70199219 83.35119141 -52.91179687 82.55003906 -52.09765625 81.72460938 C-51.28167969 80.88736328 -50.46570313 80.05011719 -49.625 79.1875 C-47.99961294 77.52777378 -46.37211373 75.87011253 -44.7421875 74.21484375 C-44.02401855 73.4787085 -43.30584961 72.74257324 -42.56591797 71.98413086 C-40.75 70.25 -40.75 70.25 -38.75 69.25 C-38.75 68.59 -38.75 67.93 -38.75 67.25 C-38.09 67.25 -37.43 67.25 -36.75 67.25 C-36.75 66.59 -36.75 65.93 -36.75 65.25 C-36.09 65.25 -35.43 65.25 -34.75 65.25 C-34.75 64.59 -34.75 63.93 -34.75 63.25 C-27.69040404 61.78939394 -27.69040404 61.78939394 -23.6875 63.75 C-20.68828457 66.30252377 -17.95029837 68.98121166 -15.265625 71.859375 C-13.84720859 73.47535618 -13.84720859 73.47535618 -11.75 73.25 C-11.75 73.91 -11.75 74.57 -11.75 75.25 C-11.09 75.25 -10.43 75.25 -9.75 75.25 C-9.75 75.91 -9.75 76.57 -9.75 77.25 C-9.09 77.25 -8.43 77.25 -7.75 77.25 C-7.75 77.91 -7.75 78.57 -7.75 79.25 C-6.24519989 80.76952854 -6.24519989 80.76952854 -4.2734375 82.34765625 C1.06863494 86.88806467 5.89722318 91.87803839 10.77734375 96.90429688 C11.45667969 97.59458984 12.13601562 98.28488281 12.8359375 98.99609375 C13.4448584 99.62185303 14.0537793 100.2476123 14.68115234 100.89233398 C16.15626573 102.46812644 16.15626573 102.46812644 18.25 102.25 C18.25 102.91 18.25 103.57 18.25 104.25 C18.91 104.25 19.57 104.25 20.25 104.25 C20.25 104.91 20.25 105.57 20.25 106.25 C20.91 106.25 21.57 106.25 22.25 106.25 C22.25 106.91 22.25 107.57 22.25 108.25 C22.91 108.25 23.57 108.25 24.25 108.25 C24.25 108.91 24.25 109.57 24.25 110.25 C24.91 110.25 25.57 110.25 26.25 110.25 C26.63478516 111.14332031 26.63478516 111.14332031 27.02734375 112.0546875 C28.35969687 114.44696371 29.68368605 115.67728199 31.8125 117.375 C35.15277778 120.05555556 35.15277778 120.05555556 36.25 122.25 C36.36944476 124.0365453 36.42722318 125.82736251 36.45532227 127.61767578 C36.47526749 128.73868683 36.49521271 129.85969788 36.51576233 131.01467896 C36.54083107 132.83659256 36.54083107 132.83659256 36.56640625 134.6953125 C36.58718735 135.93546112 36.60796844 137.17560974 36.62937927 138.45333862 C36.68377705 141.75111823 36.73400095 145.0489272 36.78222656 148.34680176 C36.83245234 151.71172653 36.88813277 155.0765605 36.94335938 158.44140625 C37.05061557 165.04419854 37.15237189 171.64705872 37.25 178.25 C45.3639196 178.34521436 50.96860845 176.64473474 57.0625 171.125 C61.66666145 166.11395917 64.23948197 159.87943132 65 153.125 C64.53900602 143.14270724 56.54284719 132.34303601 51.37890625 124.16796875 C50.25 122.25 50.25 122.25 49.25 119.25 C48.59 119.25 47.93 119.25 47.25 119.25 C47.15074219 118.70472656 47.05148438 118.15945312 46.94921875 117.59765625 C46.06878595 114.64156624 44.65564299 112.32867083 43.0625 109.6875 C40.82658681 105.92792016 38.63115514 102.16660154 36.5625 98.3125 C29.37658338 85.03002115 21.70395681 72.00468347 14.12548828 58.94360352 C11.37578175 54.20298925 8.64709864 49.45113862 5.9375 44.6875 C3.166595 39.81846117 0.31994075 35.00644344 -2.62109375 30.23828125 C-3.75 28.25 -3.75 28.25 -4.75 25.25 C-5.41 25.25 -6.07 25.25 -6.75 25.25 C-6.853125 24.693125 -6.95625 24.13625 -7.0625 23.5625 C-7.89178408 20.7730899 -9.09299056 18.6360936 -10.75 16.25 C-11.41 16.25 -12.07 16.25 -12.75 16.25 C-12.75 15.59 -12.75 14.93 -12.75 14.25 C-13.41 14.25 -14.07 14.25 -14.75 14.25 C-14.75 13.59 -14.75 12.93 -14.75 12.25 C-15.843125 11.775625 -16.93625 11.30125 -18.0625 10.8125 C-18.67738281 10.54566406 -19.29226562 10.27882813 -19.92578125 10.00390625 C-28.45687618 6.47820749 -34.73548482 8.57120615 -42.75 12.25 Z M-31.85717773 86.14599609 C-32.70739502 87.01305176 -33.5576123 87.88010742 -34.43359375 88.7734375 C-35.36107422 89.711875 -36.28855469 90.6503125 -37.24414062 91.6171875 C-38.22561388 92.61944566 -39.20672992 93.62205374 -40.1875 94.625 C-41.63915254 96.10430535 -43.09223844 97.58212557 -44.5483551 99.05703735 C-45.87333108 100.39986299 -47.19349731 101.74742935 -48.51342773 103.09521484 C-50.75 105.25 -50.75 105.25 -53.75 107.25 C-53.75 107.91 -53.75 108.57 -53.75 109.25 C-55.73 110.24 -55.73 110.24 -57.75 111.25 C-57.75 111.91 -57.75 112.57 -57.75 113.25 C-58.41 113.25 -59.07 113.25 -59.75 113.25 C-59.75 113.91 -59.75 114.57 -59.75 115.25 C-60.41 115.25 -61.07 115.25 -61.75 115.25 C-61.75 115.91 -61.75 116.57 -61.75 117.25 C-62.41 117.25 -63.07 117.25 -63.75 117.25 C-63.75 117.91 -63.75 118.57 -63.75 119.25 C-64.41 119.25 -65.07 119.25 -65.75 119.25 C-65.75 119.91 -65.75 120.57 -65.75 121.25 C-66.41 121.25 -67.07 121.25 -67.75 121.25 C-67.75 121.91 -67.75 122.57 -67.75 123.25 C-68.41 123.25 -69.07 123.25 -69.75 123.25 C-69.75 123.91 -69.75 124.57 -69.75 125.25 C-70.41 125.25 -71.07 125.25 -71.75 125.25 C-71.75 125.91 -71.75 126.57 -71.75 127.25 C-72.41 127.25 -73.07 127.25 -73.75 127.25 C-73.75 127.91 -73.75 128.57 -73.75 129.25 C-74.41 129.25 -75.07 129.25 -75.75 129.25 C-75.75 146.08 -75.75 162.91 -75.75 180.25 C-69.81 182.56 -63.87 184.87 -57.75 187.25 C-52.25 190.1875 -52.25 190.1875 -50.28125 191.40234375 C-48.7500712 192.41143863 -48.7500712 192.41143863 -46.75 192.25 C-46.75 192.91 -46.75 193.57 -46.75 194.25 C-43.69441577 197.27517909 -43.69441577 197.27517909 -39.75 198.25 C-39.75 198.91 -39.75 199.57 -39.75 200.25 C-39.09 200.25 -38.43 200.25 -37.75 200.25 C-37.75 200.91 -37.75 201.57 -37.75 202.25 C-37.09 202.25 -36.43 202.25 -35.75 202.25 C-35.5025 202.806875 -35.255 203.36375 -35 203.9375 C-33.53393985 206.64971127 -31.72010529 208.88587365 -29.75 211.25 C-25.94366119 209.7188137 -23.89615217 207.39816717 -21.25 204.3125 C-19.08230561 201.79218409 -17.14111802 199.53998991 -14.46875 197.55859375 C-13.9015625 197.12675781 -13.334375 196.69492188 -12.75 196.25 C-12.75 195.59 -12.75 194.93 -12.75 194.25 C-12.08226562 193.99992187 -11.41453125 193.74984375 -10.7265625 193.4921875 C-6.41176383 191.69152349 -2.30171951 189.51312571 1.83984375 187.34765625 C5.81985144 185.31514747 9.81497094 183.62777744 14.02490234 182.12060547 C15.00615082 181.7680368 15.98739929 181.41546814 16.99838257 181.05221558 C18.1129332 180.65511887 18.1129332 180.65511887 19.25 180.25 C19.53073031 173.33162696 19.72227102 166.4147384 19.85424805 159.49194336 C19.90930115 157.14145032 19.98417301 154.79132945 20.07983398 152.44213867 C21.30414873 137.53605882 21.30414873 137.53605882 15.36347961 124.5629425 C11.36914728 120.66163195 11.36914728 120.66163195 6.25 119.25 C6.25 118.59 6.25 117.93 6.25 117.25 C5.59 117.25 4.93 117.25 4.25 117.25 C4.25 116.59 4.25 115.93 4.25 115.25 C3.59 115.25 2.93 115.25 2.25 115.25 C2.25 114.59 2.25 113.93 2.25 113.25 C1.59 113.25 0.93 113.25 0.25 113.25 C-0.1521875 112.3528125 -0.1521875 112.3528125 -0.5625 111.4375 C-1.74917406 109.25152146 -2.84599113 107.83667406 -4.75 106.25 C-5.41 106.25 -6.07 106.25 -6.75 106.25 C-6.75 105.59 -6.75 104.93 -6.75 104.25 C-7.41 104.25 -8.07 104.25 -8.75 104.25 C-8.75 103.59 -8.75 102.93 -8.75 102.25 C-9.41 102.25 -10.07 102.25 -10.75 102.25 C-10.75 101.59 -10.75 100.93 -10.75 100.25 C-11.41 100.25 -12.07 100.25 -12.75 100.25 C-12.75 99.59 -12.75 98.93 -12.75 98.25 C-13.41 98.25 -14.07 98.25 -14.75 98.25 C-14.75 97.59 -14.75 96.93 -14.75 96.25 C-15.41 96.25 -16.07 96.25 -16.75 96.25 C-16.75 95.59 -16.75 94.93 -16.75 94.25 C-18.43522729 92.54515534 -18.43522729 92.54515534 -20.5625 90.8125 C-24.60194962 87.40582391 -24.60194962 87.40582391 -26.38671875 85.52734375 C-28.74894703 83.31402384 -29.55383129 84.07349135 -31.85717773 86.14599609 Z " fill="#F9544F" transform="translate(178.75,22.75)"/>
<path d="M0 0 C0.94093506 0.05752441 1.88187012 0.11504883 2.85131836 0.17431641 C13.3866358 0.87144693 23.57570271 2.24557465 33.796875 4.96484375 C37.10736855 5.80800936 40.42652939 6.53567752 43.76733398 7.24584961 C66.30806118 12.06583528 88.00781866 20.7600857 104.125 37.8125 C104.125 38.4725 104.125 39.1325 104.125 39.8125 C104.785 39.8125 105.445 39.8125 106.125 39.8125 C106.640625 40.59625 107.15625 41.38 107.6875 42.1875 C111.05494665 45.813981 114.29053617 46.37831672 119.125 46.8125 C122.52626597 46.54188366 122.52626597 46.54188366 125.125 45.8125 C125.125 45.1525 125.125 44.4925 125.125 43.8125 C125.785 43.8125 126.445 43.8125 127.125 43.8125 C127.41375 43.214375 127.7025 42.61625 128 42 C129.125 39.8125 129.125 39.8125 131.125 36.8125 C131.785 36.8125 132.445 36.8125 133.125 36.8125 C133.125 36.1525 133.125 35.4925 133.125 34.8125 C133.785 34.8125 134.445 34.8125 135.125 34.8125 C135.125 34.1525 135.125 33.4925 135.125 32.8125 C143.36783972 25.28778647 153.06197487 20.41376774 163.125 15.8125 C163.99769531 15.40128906 164.87039062 14.99007812 165.76953125 14.56640625 C171.55431749 12.03371449 177.56210129 10.63838754 183.71069336 9.29394531 C187.51915463 8.45869735 191.2247155 7.49432917 194.9453125 6.32421875 C207.91279762 2.36110261 221.87249105 0.69082365 235.375 -0.125 C236.20177246 -0.18252441 237.02854492 -0.24004883 237.88037109 -0.29931641 C241.23105977 -0.4479385 243.62314601 -0.45374179 246.62109375 1.13671875 C249.60534621 4.46202864 249.1444048 8.24005848 249 12.5 C248.125 15.8125 248.125 15.8125 245.93481445 17.46679688 C242.90547317 18.91763788 240.62757369 19.35415102 237.29296875 19.65625 C235.61291748 19.82120972 235.61291748 19.82120972 233.89892578 19.98950195 C232.71540527 20.09609131 231.53188477 20.20268066 230.3125 20.3125 C207.69062039 22.61234626 186.39916196 27.26883102 165.49609375 36.39453125 C162.99188204 37.44786712 160.77305242 38.29367039 158.125 38.8125 C158.125 39.4725 158.125 40.1325 158.125 40.8125 C157.465 41.204375 156.805 41.59625 156.125 42 C150.45705889 45.42438109 145.83587364 49.85176449 141.625 54.9375 C135.73364811 61.79966157 129.15305774 65.10142935 120.125 65.8125 C110.43922164 65.90574456 104.15867187 64.16828125 96.125 58.8125 C96.125 58.1525 96.125 57.4925 96.125 56.8125 C95.465 56.8125 94.805 56.8125 94.125 56.8125 C94.125 56.1525 94.125 55.4925 94.125 54.8125 C93.465 54.8125 92.805 54.8125 92.125 54.8125 C90.50390625 53.1328125 90.50390625 53.1328125 88.6875 50.9375 C86.54099116 48.35056278 84.95723438 46.70065626 82.125 44.8125 C82.125 44.1525 82.125 43.4925 82.125 42.8125 C81.44695312 42.55984375 80.76890625 42.3071875 80.0703125 42.046875 C77.27487025 40.87531034 74.6363764 39.52142776 71.96337891 38.09667969 C48.48104547 25.72772117 19.88962624 20.16123665 -6.5 19.21875 C-9.63953585 18.68172413 -11.43178763 17.87355789 -13.875 15.8125 C-14.50390625 12.78125 -14.50390625 12.78125 -14.4375 9.3125 C-14.43878906 8.1678125 -14.44007812 7.023125 -14.44140625 5.84375 C-13.875 2.8125 -13.875 2.8125 -12.45703125 0.89453125 C-8.33330662 -0.83356515 -4.39862443 -0.31432605 0 0 Z " fill="#F9554F" transform="translate(32.875,218.1875)"/>
<path d="M0 0 C2.949375 -0.020625 5.89875 -0.04125 8.9375 -0.0625 C9.86812256 -0.071604 10.79874512 -0.08070801 11.75756836 -0.09008789 C12.48596924 -0.09258545 13.21437012 -0.09508301 13.96484375 -0.09765625 C14.7137085 -0.10289307 15.46257324 -0.10812988 16.23413086 -0.11352539 C18 0 18 0 19 1 C19.08651611 2.41570123 19.10704904 3.835595 19.09765625 5.25390625 C19.09515869 6.0229126 19.09266113 6.79191895 19.09008789 7.58422852 C19.08098389 8.56705811 19.07187988 9.5498877 19.0625 10.5625 C19.041875 13.676875 19.02125 16.79125 19 20 C12.73 20 6.46 20 0 20 C0 13.4 0 6.8 0 0 Z " fill="#F1605B" transform="translate(129,144)"/>
<path d="M0 0 C0.79792969 0.00386719 1.59585938 0.00773438 2.41796875 0.01171875 C3.21589844 0.00785156 4.01382813 0.00398437 4.8359375 0 C10.79136108 0.01011108 10.79136108 0.01011108 11.91796875 1.13671875 C12.00448486 2.55241998 12.02501779 3.97231375 12.015625 5.390625 C12.01312744 6.15963135 12.01062988 6.9286377 12.00805664 7.72094727 C11.99895264 8.70377686 11.98984863 9.68660645 11.98046875 10.69921875 C11.95984375 13.81359375 11.93921875 16.92796875 11.91796875 20.13671875 C5.64796875 20.13671875 -0.62203125 20.13671875 -7.08203125 20.13671875 C-7.11296875 15.46515625 -7.11296875 15.46515625 -7.14453125 10.69921875 C-7.15363525 9.71638916 -7.16273926 8.73355957 -7.17211914 7.72094727 C-7.1746167 6.95194092 -7.17711426 6.18293457 -7.1796875 5.390625 C-7.18754272 4.20448608 -7.18754272 4.20448608 -7.19555664 2.99438477 C-6.93624032 -1.24892244 -3.45896681 0.00587261 0 0 Z " fill="#F2625D" transform="translate(159.08203125,143.86328125)"/>
<path d="M0 0 C6.27 0 12.54 0 19 0 C19 5.94 19 11.88 19 18 C16.04200997 19.47899501 13.3516424 19.13178874 10.0625 19.125 C8.81597656 19.12757813 7.56945312 19.13015625 6.28515625 19.1328125 C3 19 3 19 0 18 C0 12.06 0 6.12 0 0 Z " fill="#F3574F" transform="translate(152,168)"/>
<path d="M0 0 C6.27 0 12.54 0 19 0 C19 5.94 19 11.88 19 18 C15.82606311 19.58696844 12.41825795 19.1431447 8.9375 19.125 C8.19177734 19.12886719 7.44605469 19.13273437 6.67773438 19.13671875 C1.12663501 19.12663501 1.12663501 19.12663501 0 18 C-0.08631874 16.65732587 -0.10706473 15.31025678 -0.09765625 13.96484375 C-0.09515869 13.23644287 -0.09266113 12.50804199 -0.09008789 11.75756836 C-0.08098389 10.8269458 -0.07187988 9.89632324 -0.0625 8.9375 C-0.041875 5.988125 -0.02125 3.03875 0 0 Z " fill="#F3534E" transform="translate(129,168)"/>
<path d="M0 0 C4.88049925 3.9419417 9.0580583 8.11950075 13 13 C12.34 13.66 11.68 14.32 11 15 C11 14.34 11 13.68 11 13 C10.360625 12.87625 9.72125 12.7525 9.0625 12.625 C8.381875 12.41875 7.70125 12.2125 7 12 C6.67 11.34 6.34 10.68 6 10 C4.68 10.33 3.36 10.66 2 11 C1.690625 10.21625 1.38125 9.4325 1.0625 8.625 C0.07124962 6.07669872 0.07124962 6.07669872 -1 4 C-0.5625 1.875 -0.5625 1.875 0 0 Z " fill="#F25653" transform="translate(174,104)"/>
<path d="M0 0 C0.33 0 0.66 0 1 0 C1.33 2.97 1.66 5.94 2 9 C3.65 8.67 5.3 8.34 7 8 C7.33 9.98 7.66 11.96 8 14 C10.31 14 12.62 14 15 14 C15 14.33 15 14.66 15 15 C12.87527424 15.05386629 10.75016348 15.09273071 8.625 15.125 C6.84996094 15.15980469 6.84996094 15.15980469 5.0390625 15.1953125 C2 15 2 15 0 13 C-0.1953125 9.9609375 -0.1953125 9.9609375 -0.125 6.375 C-0.10695313 5.18648437 -0.08890625 3.99796875 -0.0703125 2.7734375 C-0.04710938 1.85820312 -0.02390625 0.94296875 0 0 Z " fill="#EA5D5B" transform="translate(19,221)"/>
<path d="M0 0 C1.65428755 4.77905292 0.27568846 9.26172859 -1 14 C-2.98 14.33 -4.96 14.66 -7 15 C-7 15.66 -7 16.32 -7 17 C-7.66 16.67 -8.32 16.34 -9 16 C-8.60167969 15.34773438 -8.20335938 14.69546875 -7.79296875 14.0234375 C-5.00509512 9.42446348 -2.30278632 4.86143779 0 0 Z " fill="#EE6C69" transform="translate(107,44)"/>
<path d="M0 0 C3.44410952 3.44410952 4.94403908 5.86212787 5.1875 10.8125 C5.125625 11.864375 5.06375 12.91625 5 14 C2.74754119 11.31158141 1.11786042 9.35358125 0 6 C-0.66 6 -1.32 6 -2 6 C-3.625 3.5 -3.625 3.5 -5 1 C-2.625 0.375 -2.625 0.375 0 0 Z " fill="#F05F57" transform="translate(133,236)"/>
<path d="M0 0 C0.33 0.66 0.66 1.32 1 2 C-0.79874571 5.78683307 -2.27322035 7.26083616 -6 9 C-6.33 9.99 -6.66 10.98 -7 12 C-8.95597184 13.39712274 -10.95436401 14.73779907 -13 16 C-13.66 15.67 -14.32 15.34 -15 15 C-10.05 10.05 -5.1 5.1 0 0 Z " fill="#EC7267" transform="translate(111,118)"/>
<path d="M0 0 C0.639375 0.78375 1.27875 1.5675 1.9375 2.375 C5.33270274 5.80911624 9.34048894 6.4153797 14 7 C14.99 7 15.98 7 17 7 C17 7.66 17 8.32 17 9 C11.06 9.495 11.06 9.495 5 10 C5 9.34 5 8.68 5 8 C3.02 8.33 1.04 8.66 -1 9 C-0.649375 8.443125 -0.29875 7.88625 0.0625 7.3125 C1.21845993 4.46113217 0.80967438 2.91482778 0 0 Z " fill="#F0706D" transform="translate(138,258)"/>
<path d="M0 0 C0.721875 0.185625 1.44375 0.37125 2.1875 0.5625 C5.12826973 1.01995307 7.14103058 0.73516357 10 0 C10.2475 0.639375 10.495 1.27875 10.75 1.9375 C11.81562433 4.18741541 11.81562433 4.18741541 14.125 4.75 C14.74375 4.8325 15.3625 4.915 16 5 C16.33 4.34 16.66 3.68 17 3 C17.33 3.99 17.66 4.98 18 6 C13.38 6 8.76 6 4 6 C4.66 5.67 5.32 5.34 6 5 C6 4.34 6 3.68 6 3 C4.35 3 2.7 3 1 3 C0.67 2.01 0.34 1.02 0 0 Z " fill="#F14C45" transform="translate(74,213)"/>
<path d="M0 0 C1.27446435 3.82339305 0.34278151 5.27005137 -1 9 C-1.36106097 10.66088045 -1.70462173 12.32618981 -2 14 C-2.99 14 -3.98 14 -5 14 C-5.33 14.66 -5.66 15.32 -6 16 C-6.66 16 -7.32 16 -8 16 C-8 16.99 -8 17.98 -8 19 C-8.66 18.67 -9.32 18.34 -10 18 C-6.72591106 11.96476272 -3.43506486 5.94530457 0 0 Z " fill="#EA6A68" transform="translate(54,137)"/>
<path d="M0 0 C1.98 0 3.96 0 6 0 C6.33 0.99 6.66 1.98 7 3 C6.67 3.66 6.34 4.32 6 5 C5.34 5 4.68 5 4 5 C4 5.66 4 6.32 4 7 C4.66 7.33 5.32 7.66 6 8 C4.35 8.33 2.7 8.66 1 9 C0.67 6.03 0.34 3.06 0 0 Z " fill="#F95047" transform="translate(20,221)"/>
<path d="M0 0 C0.66 0.33 1.32 0.66 2 1 C1.01 2.485 1.01 2.485 0 4 C1.4540625 4.4021875 1.4540625 4.4021875 2.9375 4.8125 C3.948125 5.204375 4.95875 5.59625 6 6 C6.33 6.99 6.66 7.98 7 9 C1.63904723 7.41078475 -3.70843973 5.81027062 -9 4 C-6.05944678 2.03963119 -4.37666283 1.62201684 -1 1 C-0.67 0.67 -0.34 0.34 0 0 Z " fill="#EE6C67" transform="translate(93,244)"/>
<path d="M0 0 C0.98484375 0.01804688 1.9696875 0.03609375 2.984375 0.0546875 C4.10585937 0.08949219 4.10585937 0.08949219 5.25 0.125 C0.83390253 4.54109747 -4.82217251 4.63424304 -10.75 5.125 C-9.75 2.125 -9.75 2.125 -8.046875 0.9453125 C-5.24061169 -0.0569244 -2.97306264 -0.07078721 0 0 Z " fill="#EC5D5A" transform="translate(232.75,213.875)"/>
<path d="M0 0 C0.33 0.66 0.66 1.32 1 2 C1.99 1.67 2.98 1.34 4 1 C3.625 2.9375 3.625 2.9375 3 5 C2.01 5.495 2.01 5.495 1 6 C0.27306096 7.97888961 -0.39816251 9.97954558 -1 12 C-2.32 11.34 -3.64 10.68 -5 10 C-3.35 6.7 -1.7 3.4 0 0 Z " fill="#F05F56" transform="translate(84,84)"/>
<path d="M0 0 C2.5 1.375 2.5 1.375 5 3 C5 3.66 5 4.32 5 5 C6.45833358 6.62514468 6.45833358 6.62514468 8 8 C7.67 8.66 7.34 9.32 7 10 C10.63 10 14.26 10 18 10 C18 10.33 18 10.66 18 11 C13.6835078 11.76173392 10.25566547 12.16063604 6 11 C6 10.34 6 9.68 6 9 C5.34 9 4.68 9 4 9 C0 2.25 0 2.25 0 0 Z " fill="#E77E7C" transform="translate(138,250)"/>
<path d="M0 0 C0.47050781 0.40992187 0.94101563 0.81984375 1.42578125 1.2421875 C2.04839844 1.78101562 2.67101562 2.31984375 3.3125 2.875 C4.23482422 3.67550781 4.23482422 3.67550781 5.17578125 4.4921875 C7.13498212 6.1640447 7.13498212 6.1640447 10 8 C10 8.66 10 9.32 10 10 C10.66 10.33 11.32 10.66 12 11 C11.01 11.33 10.02 11.66 9 12 C8.67 11.34 8.34 10.68 8 10 C6.824375 9.62875 6.824375 9.62875 5.625 9.25 C2.07816415 7.56103055 1.41587825 5.57695559 0 2 C0 1.34 0 0.68 0 0 Z M2 9 C2.99 9.495 2.99 9.495 4 10 C3.01 10.495 3.01 10.495 2 11 C2 10.34 2 9.68 2 9 Z " fill="#EF736C" transform="translate(187,117)"/>
<path d="M0 0 C0.33 1.32 0.66 2.64 1 4 C0.34 4 -0.32 4 -1 4 C-1.226875 4.804375 -1.45375 5.60875 -1.6875 6.4375 C-2.3371875 7.7059375 -2.3371875 7.7059375 -3 9 C-5.625 9.8125 -5.625 9.8125 -8 10 C-8 10.66 -8 11.32 -8 12 C-9.875 12.625 -9.875 12.625 -12 13 C-12.66 12.34 -13.32 11.68 -14 11 C-12.989375 10.67 -11.97875 10.34 -10.9375 10 C-6.04525549 7.95324464 -3.19680116 4.09073948 0 0 Z " fill="#E87979" transform="translate(239,188)"/>
<path d="M0 0 C3.465 1.485 3.465 1.485 7 3 C6 5 6 5 4.0390625 5.703125 C2.84410156 5.97382813 2.84410156 5.97382813 1.625 6.25 C0.83351562 6.44078125 0.04203125 6.6315625 -0.7734375 6.828125 C-3 7 -3 7 -6 5 C-4.35 5 -2.7 5 -1 5 C-0.67 3.35 -0.34 1.7 0 0 Z " fill="#F34943" transform="translate(150,277)"/>
<path d="M0 0 C0.86407471 0.05760498 1.72814941 0.11520996 2.6184082 0.17456055 C3.55620117 0.2293457 4.49399414 0.28413086 5.46020508 0.34057617 C6.43666992 0.4134082 7.41313477 0.48624023 8.41918945 0.5612793 C9.90128906 0.653125 9.90128906 0.653125 11.41333008 0.74682617 C13.85405064 0.90010814 16.29288034 1.06795083 18.73168945 1.2487793 C18.73168945 1.5787793 18.73168945 1.9087793 18.73168945 2.2487793 C10.81168945 2.5787793 2.89168945 2.9087793 -5.26831055 3.2487793 C-2.26831055 0.2487793 -2.26831055 0.2487793 0 0 Z " fill="#E3726D" transform="translate(25.268310546875,217.751220703125)"/>
<path d="M0 0 C1.79379098 0.44994757 3.58498928 0.91024143 5.375 1.375 C6.37273437 1.63023437 7.37046875 1.88546875 8.3984375 2.1484375 C11 3 11 3 13 5 C9.14453537 5.07414355 5.70736197 5.09847762 2 4 C1.34 4 0.68 4 0 4 C0 2.68 0 1.36 0 0 Z " fill="#EA6A66" transform="translate(106,204)"/>
<path d="M0 0 C0.99 0 1.98 0 3 0 C2.67 2.64 2.34 5.28 2 8 C1.21625 7.649375 0.4325 7.29875 -0.375 6.9375 C-1.24125 6.628125 -2.1075 6.31875 -3 6 C-3.99 6.495 -3.99 6.495 -5 7 C-5 6.01 -5 5.02 -5 4 C-4.360625 3.71125 -3.72125 3.4225 -3.0625 3.125 C-0.84793921 2.17176549 -0.84793921 2.17176549 0 0 Z " fill="#F06863" transform="translate(152,102)"/>
<path d="M0 0 C1.27162597 3.8148779 0.64661571 5.3931275 -1 9 C-3.87793741 10.4389687 -6.00700971 9.96203259 -9 9 C-8.01 9 -7.02 9 -6 9 C-6 8.34 -6 7.68 -6 7 C-5.34 7 -4.68 7 -4 7 C-3.71125 6.401875 -3.4225 5.80375 -3.125 5.1875 C-2 3 -2 3 0 0 Z " fill="#EE716F" transform="translate(164,255)"/>
<path d="M0 0 C2.36557373 2.13300328 3.62967528 3.95949399 4.75 6.9375 C5.01296875 7.60652344 5.2759375 8.27554688 5.546875 8.96484375 C6.07046274 11.31647491 5.74954377 12.73617523 5 15 C2.82813579 12.82813579 2.3206752 11.50023469 1.375 8.625 C1.11460937 7.85414063 0.85421875 7.08328125 0.5859375 6.2890625 C0 4 0 4 0 0 Z " fill="#E9716C" transform="translate(254,152)"/>
<path d="M0 0 C1.85546875 0.1953125 1.85546875 0.1953125 4 1 C5.30078125 3.1796875 5.30078125 3.1796875 6.3125 5.875 C6.65925781 6.75929688 7.00601563 7.64359375 7.36328125 8.5546875 C8 11 8 11 7 14 C6.01441551 12.42065361 5.03677459 10.83634827 4.0625 9.25 C3.51722656 8.36828125 2.97195312 7.4865625 2.41015625 6.578125 C1.17284288 4.31600083 0.46409487 2.51433675 0 0 Z " fill="#E5736D" transform="translate(212,115)"/>
<path d="M0 0 C4.46839215 -0.21278058 7.82262526 0.40861915 12 2 C11.67 2.99 11.34 3.98 11 5 C9.35 4.67 7.7 4.34 6 4 C6 3.34 6 2.68 6 2 C4.02 2 2.04 2 0 2 C0 1.34 0 0.68 0 0 Z " fill="#E05953" transform="translate(70,225)"/>
<path d="M0 0 C-3.52679099 2.35119399 -5.02879485 2.21443452 -9.1875 2.125 C-10.27417969 2.10695312 -11.36085937 2.08890625 -12.48046875 2.0703125 C-13.72763672 2.03550781 -13.72763672 2.03550781 -15 2 C-15 1.34 -15 0.68 -15 0 C-9.65370398 -1.0024305 -5.37625234 -0.84888195 0 0 Z " fill="#E9655E" transform="translate(248,223)"/>
<path d="M0 0 C0.94467607 2.55062538 1.02758299 3.88690973 0.375 6.5625 C-1.29402218 9.52122114 -2.99958243 10.49979122 -6 12 C-4.43358249 7.69235185 -2.31663844 3.93828536 0 0 Z " fill="#EC7570" transform="translate(64,119)"/>
<path d="M0 0 C0 3 0 3 -1 5 C-1.66 5 -2.32 5 -3 5 C-3.33 6.32 -3.66 7.64 -4 9 C-5.65 9 -7.3 9 -9 9 C-8.67 8.34 -8.34 7.68 -8 7 C-7.34 7 -6.68 7 -6 7 C-6 6.34 -6 5.68 -6 5 C-5.34 5 -4.68 5 -4 5 C-4 4.34 -4 3.68 -4 3 C-3.34 3 -2.68 3 -2 3 C-2 2.34 -2 1.68 -2 1 C-1.34 0.67 -0.68 0.34 0 0 Z " fill="#EB726F" transform="translate(146,85)"/>
<path d="M0 0 C0.33 0.66 0.66 1.32 1 2 C0.0625 4.625 0.0625 4.625 -1 7 C-1.66 7 -2.32 7 -3 7 C-3.33 8.65 -3.66 10.3 -4 12 C-4.99 12 -5.98 12 -7 12 C-6.02296079 10.1863523 -5.04330895 8.37411183 -4.0625 6.5625 C-3.51722656 5.55316406 -2.97195312 4.54382812 -2.41015625 3.50390625 C-1 1 -1 1 0 0 Z " fill="#E97A79" transform="translate(115,31)"/>
<path d="M0 0 C0 0.66 0 1.32 0 2 C-1.4096347 2.70180531 -2.82807641 3.38593958 -4.25 4.0625 C-5.03890625 4.44535156 -5.8278125 4.82820312 -6.640625 5.22265625 C-9.25993522 6.08564091 -10.44855176 5.93045933 -13 5 C-11.39967863 4.15930585 -9.79458829 3.32768495 -8.1875 2.5 C-6.84751953 1.80390625 -6.84751953 1.80390625 -5.48046875 1.09375 C-3 0 -3 0 0 0 Z " fill="#E5716A" transform="translate(199,234)"/>
<path d="M0 0 C6.24 -0.36 6.24 -0.36 9.375 1.125 C11.54656687 3.63065408 11.7111841 5.75082115 12 9 C11.34 9 10.68 9 10 9 C8.5393715 6.35261084 8 5.10551666 8 2 C5.36 1.67 2.72 1.34 0 1 C0 0.67 0 0.34 0 0 Z " fill="#EA716F" transform="translate(270,218)"/>
<path d="M0 0 C0.33 1.32 0.66 2.64 1 4 C-1.8125 6.0625 -1.8125 6.0625 -5 8 C-5.99 7.67 -6.98 7.34 -8 7 C-6.71034824 5.62437146 -5.37310707 4.29233607 -4 3 C-3.34 3 -2.68 3 -2 3 C-2 2.34 -2 1.68 -2 1 C-1.34 0.67 -0.68 0.34 0 0 Z " fill="#EB6A64" transform="translate(168,216)"/>
<path d="M0 0 C0.99 0.33 1.98 0.66 3 1 C3.6875 3.0625 3.6875 3.0625 4 5 C4.66 5 5.32 5 6 5 C6.33 6.98 6.66 8.96 7 11 C6.34 11 5.68 11 5 11 C4.16426177 9.35538655 3.33147118 7.70927487 2.5 6.0625 C2.0359375 5.14597656 1.571875 4.22945312 1.09375 3.28515625 C0 1 0 1 0 0 Z " fill="#EA726D" transform="translate(42,192)"/>
<path d="M0 0 C0.66 0 1.32 0 2 0 C2.33 1.65 2.66 3.3 3 5 C3.66 5 4.32 5 5 5 C5 5.66 5 6.32 5 7 C5.66 7.33 6.32 7.66 7 8 C7 9.65 7 11.3 7 13 C3.70759125 10.20145256 1.96437054 6.79326725 0 3 C0 2.01 0 1.02 0 0 Z " fill="#E7736D" transform="translate(228,142)"/>
<path d="M0 0 C0.66 0 1.32 0 2 0 C2 0.66 2 1.32 2 2 C3.65 1.67 5.3 1.34 7 1 C7.33 1.99 7.66 2.98 8 4 C7.67 4.66 7.34 5.32 7 6 C4.9375 6.625 4.9375 6.625 3 7 C2.01 4.69 1.02 2.38 0 0 Z " fill="#F25D5E" transform="translate(235,155)"/>
<path d="M0 0 C2.31 1.98 4.62 3.96 7 6 C6.01 7.485 6.01 7.485 5 9 C5 8.34 5 7.68 5 7 C3.68 6.67 2.36 6.34 1 6 C0.67 4.02 0.34 2.04 0 0 Z " fill="#ED6D69" transform="translate(180,110)"/>
<path d="M0 0 C0 2.83967231 -0.40267181 5.23735711 -1 8 C-3.31 8.33 -5.62 8.66 -8 9 C-8 8.34 -8 7.68 -8 7 C-6.25 5.2734375 -6.25 5.2734375 -4 3.375 C-3.2575 2.74335937 -2.515 2.11171875 -1.75 1.4609375 C-1.1725 0.97882813 -0.595 0.49671875 0 0 Z " fill="#EB6A64" transform="translate(124,106)"/>
<path d="M0 0 C0.33 0.66 0.66 1.32 1 2 C0.360625 2.268125 -0.27875 2.53625 -0.9375 2.8125 C-3.33131686 3.88667752 -3.33131686 3.88667752 -4 7 C-5.98 7.33 -7.96 7.66 -10 8 C-10 7.34 -10 6.68 -10 6 C-7.8125 4.4921875 -7.8125 4.4921875 -5 2.875 C-4.071875 2.33617187 -3.14375 1.79734375 -2.1875 1.2421875 C-1.465625 0.83226563 -0.74375 0.42234375 0 0 Z " fill="#E56D67" transform="translate(131,17)"/>
<path d="M0 0 C0.66 0 1.32 0 2 0 C2.33 1.65 2.66 3.3 3 5 C2.01 5.66 1.02 6.32 0 7 C-0.99 6.67 -1.98 6.34 -3 6 C-2.67 4.68 -2.34 3.36 -2 2 C-1.34 2 -0.68 2 0 2 C0 1.34 0 0.68 0 0 Z " fill="#EB5950" transform="translate(168,251)"/>
<path d="M0 0 C1.32 1.32 2.64 2.64 4 4 C2.35 4.66 0.7 5.32 -1 6 C-1 6.66 -1 7.32 -1 8 C-1.99 8.33 -2.98 8.66 -4 9 C-2.80100302 5.9168649 -1.52299523 2.93720508 0 0 Z " fill="#EE6662" transform="translate(78,95)"/>
<path d="M0 0 C2.97 0.33 5.94 0.66 9 1 C9 1.33 9 1.66 9 2 C5.04 2.99 1.08 3.98 -3 5 C-3.33 4.34 -3.66 3.68 -4 3 C-3.01 3 -2.02 3 -1 3 C-0.67 2.01 -0.34 1.02 0 0 Z " fill="#EA6B65" transform="translate(214,244)"/>
<path d="M0 0 C-1.32 2.31 -2.64 4.62 -4 7 C-5.4606285 4.35261084 -6 3.10551666 -6 0 C-3 -1 -3 -1 0 0 Z " fill="#ED6263" transform="translate(92,110)"/>
<path d="M0 0 C0.66 0 1.32 0 2 0 C2.66 1.98 3.32 3.96 4 6 C3.01 6.495 3.01 6.495 2 7 C0.35 5.68 -1.3 4.36 -3 3 C-2.01 3 -1.02 3 0 3 C0 2.01 0 1.02 0 0 Z " fill="#EF5D5B" transform="translate(110,253)"/>
<path d="M0 0 C3.3 1.65 6.6 3.3 10 5 C10 5.66 10 6.32 10 7 C2.18363463 5.08277831 2.18363463 5.08277831 0 2 C0 1.34 0 0.68 0 0 Z " fill="#E66D69" transform="translate(122,210)"/>
<path d="M0 0 C2.03833424 1.2739589 4.03852126 2.61061923 6 4 C6 4.66 6 5.32 6 6 C6.66 6 7.32 6 8 6 C7.67 6.66 7.34 7.32 7 8 C5.1875 7.8125 5.1875 7.8125 3 7 C0 2.82142857 0 2.82142857 0 0 Z " fill="#E67774" transform="translate(133,217)"/>
<path d="M0 0 C3.12270126 2.51830747 3.94523098 3.7261549 4.75 7.75 C4.8325 8.8225 4.915 9.895 5 11 C2.25722422 7.80009492 0.3697164 4.99500618 -1 1 C-0.67 0.67 -0.34 0.34 0 0 Z " fill="#E6706B" transform="translate(203,97)"/>
<path d="M0 0 C0.33 1.32 0.66 2.64 1 4 C-2.75 7 -2.75 7 -5 7 C-3.70700306 4.11562221 -2.34058637 2.12780579 0 0 Z " fill="#EB6662" transform="translate(159,224)"/>
<path d="M0 0 C1.98 0 3.96 0 6 0 C6.33 1.32 6.66 2.64 7 4 C6.01 4.33 5.02 4.66 4 5 C2.68 3.35 1.36 1.7 0 0 Z " fill="#F37476" transform="translate(154,110)"/>
<path d="M0 0 C0.99 0 1.98 0 3 0 C1.55746343 3.36591866 -0.33264727 5.51047079 -3 8 C-3.33 7.34 -3.66 6.68 -4 6 C-3.34 6 -2.68 6 -2 6 C-1.855625 5.195625 -1.71125 4.39125 -1.5625 3.5625 C-1 1 -1 1 0 0 Z " fill="#E86865" transform="translate(96,64)"/>
<path d="M0 0 C1.85776765 3.13498292 2.20140476 5.37471432 2 9 C-1.875 4.25 -1.875 4.25 -3 2 C-2.01 2 -1.02 2 0 2 C0 1.34 0 0.68 0 0 Z " fill="#EC786F" transform="translate(136,241)"/>
<path d="M0 0 C0 0.66 0 1.32 0 2 C-1.65 2.33 -3.3 2.66 -5 3 C-5 2.34 -5 1.68 -5 1 C-6.65 1.33 -8.3 1.66 -10 2 C-9.67 1.34 -9.34 0.68 -9 0 C-5.65506316 -0.99444068 -3.31044803 -1.10348268 0 0 Z " fill="#F44E45" transform="translate(194,240)"/>
<path d="M0 0 C1.25 1.5625 1.25 1.5625 2 4 C0.93237266 6.57001015 -0.46544943 8.6530403 -2 11 C-2.33 11 -2.66 11 -3 11 C-3 9.35 -3 7.7 -3 6 C-2.34 6 -1.68 6 -1 6 C-1.0309375 4.7934375 -1.0309375 4.7934375 -1.0625 3.5625 C-1 1 -1 1 0 0 Z " fill="#EB7D7B" transform="translate(62,156)"/>
<path d="M0 0 C1.32 1.32 2.64 2.64 4 4 C3.34 5.32 2.68 6.64 2 8 C0.4375 6.25 0.4375 6.25 -1 4 C-0.6875 1.75 -0.6875 1.75 0 0 Z " fill="#F36B68" transform="translate(174,104)"/>
<path d="M0 0 C3.36591427 2.72478774 4.44226276 6.06856792 6 10 C5.01 10.495 5.01 10.495 4 11 C2 8 2 8 2 4 C1.34 4 0.68 4 0 4 C0 2.68 0 1.36 0 0 Z " fill="#E86E6E" transform="translate(207,70)"/>
<path d="M0 0 C0.99 0.33 1.98 0.66 3 1 C3 1.99 3 2.98 3 4 C3.66 4 4.32 4 5 4 C5.33 5.98 5.66 7.96 6 10 C3.61405803 8.80702902 3.16265153 7.85642735 1.875 5.5625 C1.52179688 4.94503906 1.16859375 4.32757813 0.8046875 3.69140625 C0 2 0 2 0 0 Z " fill="#E67870" transform="translate(179,58)"/>
<path d="M0 0 C0.33 2.97 0.66 5.94 1 9 C-1.01136276 6.44008376 -2.62845496 3.95409701 -4 1 C-2 0 -2 0 0 0 Z " fill="#EE6C69" transform="translate(178,49)"/>
<path d="M0 0 C2.31 0 4.62 0 7 0 C3.71536341 2.18975773 0.79303725 2.99806563 -3 4 C-3 3.34 -3 2.68 -3 2 C-2.01 2 -1.02 2 0 2 C0 1.34 0 0.68 0 0 Z " fill="#E76D69" transform="translate(203,249)"/>
<path d="M0 0 C1.68762851 1.6454378 3.3540349 3.31288577 5 5 C5 5.33 5 5.66 5 6 C3.02 6 1.04 6 -1 6 C-0.67 4.02 -0.34 2.04 0 0 Z " fill="#EC6B68" transform="translate(142,225)"/>
<path d="M0 0 C0.99 0.33 1.98 0.66 3 1 C3 1.66 3 2.32 3 3 C4.32 3.33 5.64 3.66 7 4 C7.33 5.32 7.66 6.64 8 8 C7.34 8 6.68 8 6 8 C6 7.34 6 6.68 6 6 C5.34 6 4.68 6 4 6 C4 5.34 4 4.68 4 4 C3.34 4 2.68 4 2 4 C2 3.34 2 2.68 2 2 C1.34 2 0.68 2 0 2 C0 1.34 0 0.68 0 0 Z " fill="#EE9B97" transform="translate(179,134)"/>
<path d="M0 0 C0 3.10551666 -0.5393715 4.35261084 -2 7 C-3.32 6.67 -4.64 6.34 -6 6 C-4.02 4.02 -2.04 2.04 0 0 Z " fill="#EA8280" transform="translate(136,94)"/>
<path d="M0 0 C4.31392226 0.4793247 6.16569547 1.7457985 9 5 C8.01 5 7.02 5 6 5 C6 4.34 6 3.68 6 3 C3.03 2.505 3.03 2.505 0 2 C0 1.34 0 0.68 0 0 Z " fill="#E66965" transform="translate(149,84)"/>
<path d="M0 0 C-2.93828597 2.50298434 -5.17902761 3.46930939 -9 4 C-9 3.01 -9 2.02 -9 1 C-5.92677456 0.08941469 -3.19902639 -0.08886184 0 0 Z " fill="#EA7477" transform="translate(143,32)"/>
<path d="M0 0 C0 1.65 0 3.3 0 5 C-2.97 4.505 -2.97 4.505 -6 4 C-1.125 0 -1.125 0 0 0 Z " fill="#F06C6D" transform="translate(175,212)"/>
<path d="M0 0 C3 1 3 1 4 3 C4.039992 4.99960012 4.04346799 7.00047242 4 9 C2.00902154 6.01353231 1.05875074 3.40312738 0 0 Z " fill="#EB7B7D" transform="translate(239,162)"/>
<path d="M0 0 C0.66 0.33 1.32 0.66 2 1 C2 1.99 2 2.98 2 4 C0 5.6875 0 5.6875 -2 7 C-2 5.02 -2 3.04 -2 1 C-1.34 0.67 -0.68 0.34 0 0 Z " fill="#EF6462" transform="translate(126,125)"/>
<path d="M0 0 C1.98 0.99 1.98 0.99 4 2 C4 2.99 4 3.98 4 5 C4.66 5 5.32 5 6 5 C5.67 5.99 5.34 6.98 5 8 C2.74754119 5.31158141 1.11786042 3.35358125 0 0 Z " fill="#E76A66" transform="translate(187,72)"/>
<path d="" fill="#FFFFFF" transform="translate(0,0)"/>
<path d="" fill="#FFFFFF" transform="translate(0,0)"/>
<path d="" fill="#FFFFFF" transform="translate(0,0)"/>
<path d="" fill="#FFFFFF" transform="translate(0,0)"/>
<path d="" fill="#FFFFFF" transform="translate(0,0)"/>
<path d="" fill="#FFFFFF" transform="translate(0,0)"/>
<path d="" fill="#FFFFFF" transform="translate(0,0)"/>
<path d="" fill="#FFFFFF" transform="translate(0,0)"/>
<path d="" fill="#FFFFFF" transform="translate(0,0)"/>
<path d="" fill="#FFFFFF" transform="translate(0,0)"/>
<path d="" fill="#FFFFFF" transform="translate(0,0)"/>
<path d="" fill="#FFFFFF" transform="translate(0,0)"/>
<path d="" fill="#FFFFFF" transform="translate(0,0)"/>
<path d="" fill="#FFFFFF" transform="translate(0,0)"/>
<path d="" fill="#FFFFFF" transform="translate(0,0)"/>
<path d="" fill="#FFFFFF" transform="translate(0,0)"/>
</svg>
